<svg xmlns="http://www.w3.org/2000/svg" viewBox="0 0 32 32" fill="none">
  <!-- Dark navy background circle -->
  <circle cx="16" cy="16" r="16" fill="hsl(222, 47%, 8%)"/>
  <!-- Cloud shape in orange -->
  <path d="M22 20H11C9.34 20 8 18.66 8 17C8 15.55 9.02 14.34 10.39 14.07C10.14 13.57 10 13.01 10 12.42C10 10.53 11.53 9 13.42 9C14.08 9 14.69 9.19 15.2 9.52C15.9 8.09 17.36 7.1 19.06 7C21.28 6.88 23.17 8.49 23.48 10.66C23.65 10.65 23.82 10.63 24 10.63C25.66 10.63 27 11.97 27 13.63C27 15.29 25.66 16.63 24 16.63H22.5" stroke="hsl(30, 100%, 55%)" stroke-width="1.8" stroke-linecap="round"/>
  <!-- Small sparkle -->
  <circle cx="22" cy="21" r="3" fill="hsl(30, 100%, 55%)" opacity="0.9"/>
  <path d="M22 19.2V22.8M20.2 21H23.8" stroke="hsl(222, 47%, 8%)" stroke-width="1.2" stroke-linecap="round"/>
</svg>
